name Walk1.mot
datacolumns 19
datarows 22
range 1.07500000 1.18000000
endheader

                time	   L_ground_force_vx	   L_ground_force_vy	   L_ground_force_vz	   L_ground_force_px	   L_ground_force_py	   L_ground_force_pz	   R_ground_force_vx	   R_ground_force_vy	   R_ground_force_vz	   R_ground_force_px	   R_ground_force_py	   R_ground_force_pz	   L_ground_torque_x	   L_ground_torque_y	   L_ground_torque_z	   R_ground_torque_x	   R_ground_torque_y	   R_ground_torque_z	
          1.07500000	         -0.00000000	          0.00000000	         -0.00000000	         -0.00000000	          0.00000000	         -0.00000000	         -3.03617813	         89.99603455	          8.70652159	         -0.00284162	          0.00000000	          0.00255865	          0.00000000	         -0.00000000	          0.00000000	          0.00000000	         -0.03522666	          0.00000000	
          1.08000000	         -0.00000000	          0.00000000	          0.00000000	         -0.00000000	          0.00000000	         -0.00000000	         -9.28583991	        137.19019797	         11.21793549	         -0.05123154	          0.00000000	          0.07664935	          0.00000000	         -0.00000000	          0.00000000	          0.00000000	         -0.10402858	          0.00000000	
          1.08500000	         -0.00000000	         -0.00000000	          0.00000000	         -0.00000000	          0.00000000	         -0.00000000	        -16.82011126	        189.41915566	         13.77060824	         -0.09579046	          0.00000000	          0.14573692	          0.00000000	         -0.00000000	          0.00000000	          0.00000000	         -0.16262090	          0.00000000	
          1.09000000	         -0.00000000	         -0.00000001	          0.00000000	         -0.00000000	          0.00000000	         -0.00000000	        -25.67160385	        244.18700199	         16.07408905	         -0.13402252	          0.00000000	          0.20623188	          0.00000000	         -0.00000000	          0.00000000	          0.00000000	         -0.20544249	          0.00000000	
          1.09500000	         -0.00000000	         -0.00000001	          0.00000000	         -0.00000000	          0.00000000	         -0.00000000	        -35.89203954	        298.85794801	         17.75444485	         -0.16476717	          0.00000000	          0.25647914	          0.00000000	         -0.00000000	          0.00000000	          0.00000000	         -0.22823457	          0.00000000	
          1.10000000	         -0.00000000	         -0.00000002	          0.00000000	         -0.00000000	          0.00000000	         -0.00000000	        -47.46108343	        351.49663824	         18.45277946	         -0.18788052	          0.00000000	          0.29623066	          0.00000000	         -0.00000000	          0.00000000	          0.00000000	         -0.22780554	          0.00000000	
          1.10500000	         -0.00000000	         -0.00000003	          0.00000000	         -0.00000000	          0.00000000	         -0.00000000	        -60.15979963	        400.75976614	         17.93783918	         -0.20391832	          0.00000000	          0.32615316	          0.00000000	         -0.00000000	          0.00000000	          0.00000000	         -0.20307095	          0.00000000	
          1.11000000	         -0.00000000	         -0.00000004	          0.00000000	         -0.00000000	          0.00000000	         -0.00000000	        -73.51978220	        445.54917954	         16.16946612	         -0.21385195	          0.00000000	          0.34744289	          0.00000000	         -0.00000000	          0.00000000	          0.00000000	         -0.15741340	          0.00000000	
          1.11500000	         -0.00000000	         -0.00000005	          0.00000001	         -0.00000000	          0.00000000	         -0.00000000	        -86.87984966	        485.23976466	         13.27657151	         -0.21882098	          0.00000000	          0.36154277	          0.00000000	         -0.00000000	          0.00000000	          0.00000000	         -0.10064829	          0.00000000	
          1.12000000	          0.00000000	         -0.00000006	          0.00000001	         -0.00000000	          0.00000000	         -0.00000000	        -99.58519442	        519.95009844	          9.46902213	         -0.21998021	          0.00000000	          0.36994243	          0.00000000	         -0.00000000	          0.00000000	          0.00000000	         -0.04800870	          0.00000000	
          1.12500000	          0.00000000	         -0.00000007	          0.00000001	         -0.00000000	          0.00000000	         -0.00000000	       -111.20645305	        550.29420749	          5.00914158	         -0.21841440	          0.00000000	          0.37404439	          0.00000000	          0.00000000	          0.00000000	          0.00000000	         -0.01552329	          0.00000000	
          1.13000000	          0.00000001	         -0.00000008	          0.00000001	         -0.00000000	          0.00000000	         -0.00000000	       -121.57428390	        576.99916731	          0.21777166	         -0.21507060	          0.00000000	          0.37508283	          0.00000000	          0.00000000	          0.00000000	          0.00000000	         -0.01533636	          0.00000000	
          1.13500000	          0.00000001	         -0.00000008	          0.00000001	         -0.00000000	          0.00000000	         -0.00000000	       -130.63363559	        600.78560499	         -4.56935764	         -0.21072243	          0.00000000	          0.37408494	          0.00000000	          0.00000000	          0.00000000	          0.00000000	         -0.05261972	          0.00000000	
          1.14000000	          0.00000001	         -0.00000007	          0.00000001	         -0.00000000	          0.00000000	         -0.00000000	       -138.31494874	        622.44212238	         -9.06182779	         -0.20597273	          0.00000000	          0.37186362	          0.00000000	          0.00000000	          0.00000000	          0.00000000	         -0.12475579	          0.00000000	
          1.14500000	          0.00000002	         -0.00000005	          0.00000000	         -0.00000000	          0.00000000	          0.00000000	       -144.52171514	        642.80756551	        -13.04314370	         -0.20126975	          0.00000000	          0.36903182	          0.00000000	          0.00000000	          0.00000000	          0.00000000	         -0.22370091	          0.00000000	
          1.15000000	          0.00000002	         -0.00000001	         -0.00000000	          0.00000000	          0.00000000	          0.00000000	       -149.16960843	        662.61923337	        -16.35229050	         -0.19692353	          0.00000000	          0.36602756	          0.00000000	          0.00000000	          0.00000000	          0.00000000	         -0.34078515	          0.00000000	
          1.15500000	          0.00000003	          0.00000006	         -0.00000001	          0.00000000	          0.00000000	          0.00000000	       -152.21684691	        682.38290262	        -18.86437405	         -0.19312263	          0.00000000	          0.36314160	          0.00000000	          0.00000000	          0.00000000	          0.00000000	         -0.46958715	          0.00000000	
          1.16000000	          0.00000004	          0.00000015	         -0.00000002	          0.00000000	          0.00000000	          0.00000000	       -153.68714757	        702.33901459	        -20.50416072	         -0.18995375	          0.00000000	          0.36054850	          0.00000000	          0.00000000	          0.00000000	          0.00000000	         -0.60556517	          0.00000000	
          1.16500000	          0.00000004	          0.00000028	         -0.00000004	          0.00000000	          0.00000000	          0.00000000	       -153.68001945	        722.45717402	        -21.26884080	         -0.18742515	          0.00000000	          0.35833610	          0.00000000	          0.00000000	          0.00000000	          0.00000000	         -0.74467840	          0.00000000	
          1.17000000	          0.00000004	          0.00000045	         -0.00000006	          0.00000000	          0.00000000	          0.00000000	       -152.35906032	        742.42238207	        -21.23345886	         -0.18548663	          0.00000000	          0.35653040	          0.00000000	          0.00000000	          0.00000000	          0.00000000	         -0.88269610	          0.00000000	
          1.17500000	          0.00000004	          0.00000066	         -0.00000008	          0.00000000	          0.00000000	          0.00000000	       -149.93203285	        761.67756726	        -20.54128213	         -0.18404861	          0.00000000	          0.35511911	          0.00000000	          0.00000000	          0.00000000	          0.00000000	         -1.01530360	          0.00000000	
          1.18000000	          0.00000003	          0.00000091	         -0.00000011	          0.00000000	          0.00000000	          0.00000000	       -146.62752988	        779.54857278	        -19.38475705	         -0.18300219	          0.00000000	          0.35406879	          0.00000000	          0.00000000	          0.00000000	          0.00000000	         -1.13878775	          0.00000000	
